<mxfile host="app.diagrams.net" modified="2023-05-02T16:04:41.797Z" agent="Mozilla/5.0 (Windows NT 10.0; Win64; x64) AppleWebKit/537.36 (KHTML, like Gecko) Chrome/112.0.0.0 Safari/537.36" etag="dsnjU3PGtwyy_0b2iQhS" version="21.2.4" type="device">
  <diagram name="Página-1" id="7LEvCIcJafj7x5aN4QO6">
    <mxGraphModel dx="1035" dy="522" grid="1" gridSize="10" guides="1" tooltips="1" connect="1" arrows="1" fold="1" page="1" pageScale="1" pageWidth="827" pageHeight="1169" math="0" shadow="0">
      <root>
        <mxCell id="0" />
        <mxCell id="1" parent="0" />
        <mxCell id="RigMC0Gt6wFW-GYbgyMK-1" value="Usuário" style="shape=umlActor;verticalLabelPosition=bottom;verticalAlign=top;html=1;outlineConnect=0;" vertex="1" parent="1">
          <mxGeometry x="50" y="50" width="30" height="60" as="geometry" />
        </mxCell>
        <mxCell id="RigMC0Gt6wFW-GYbgyMK-4" value="Criar equipe" style="ellipse;whiteSpace=wrap;html=1;" vertex="1" parent="1">
          <mxGeometry x="245" y="10" width="120" height="50" as="geometry" />
        </mxCell>
        <mxCell id="RigMC0Gt6wFW-GYbgyMK-7" value="" style="endArrow=none;html=1;rounded=0;exitX=0.5;exitY=0.5;exitDx=0;exitDy=0;exitPerimeter=0;entryX=0;entryY=0.5;entryDx=0;entryDy=0;" edge="1" parent="1" source="RigMC0Gt6wFW-GYbgyMK-1" target="RigMC0Gt6wFW-GYbgyMK-4">
          <mxGeometry width="50" height="50" relative="1" as="geometry">
            <mxPoint x="430" y="270" as="sourcePoint" />
            <mxPoint x="480" y="220" as="targetPoint" />
          </mxGeometry>
        </mxCell>
        <mxCell id="RigMC0Gt6wFW-GYbgyMK-8" value="Editar equipe" style="ellipse;whiteSpace=wrap;html=1;" vertex="1" parent="1">
          <mxGeometry x="245" y="70" width="120" height="50" as="geometry" />
        </mxCell>
        <mxCell id="RigMC0Gt6wFW-GYbgyMK-9" value="Excluir equipe" style="ellipse;whiteSpace=wrap;html=1;" vertex="1" parent="1">
          <mxGeometry x="247.5" y="130" width="120" height="50" as="geometry" />
        </mxCell>
        <mxCell id="RigMC0Gt6wFW-GYbgyMK-10" value="Ver histórico de jogos" style="ellipse;whiteSpace=wrap;html=1;" vertex="1" parent="1">
          <mxGeometry x="230" y="190" width="150" height="50" as="geometry" />
        </mxCell>
        <mxCell id="RigMC0Gt6wFW-GYbgyMK-11" value="Ver pontuação" style="ellipse;whiteSpace=wrap;html=1;" vertex="1" parent="1">
          <mxGeometry x="230" y="250" width="145" height="40" as="geometry" />
        </mxCell>
        <mxCell id="RigMC0Gt6wFW-GYbgyMK-12" value="" style="endArrow=none;html=1;rounded=0;exitX=0;exitY=0.5;exitDx=0;exitDy=0;" edge="1" parent="1" source="RigMC0Gt6wFW-GYbgyMK-8" target="RigMC0Gt6wFW-GYbgyMK-1">
          <mxGeometry width="50" height="50" relative="1" as="geometry">
            <mxPoint x="430" y="270" as="sourcePoint" />
            <mxPoint x="480" y="220" as="targetPoint" />
          </mxGeometry>
        </mxCell>
        <mxCell id="RigMC0Gt6wFW-GYbgyMK-13" value="" style="endArrow=none;html=1;rounded=0;exitX=0;exitY=0.5;exitDx=0;exitDy=0;" edge="1" parent="1" source="RigMC0Gt6wFW-GYbgyMK-9" target="RigMC0Gt6wFW-GYbgyMK-1">
          <mxGeometry width="50" height="50" relative="1" as="geometry">
            <mxPoint x="430" y="270" as="sourcePoint" />
            <mxPoint x="480" y="220" as="targetPoint" />
          </mxGeometry>
        </mxCell>
        <mxCell id="RigMC0Gt6wFW-GYbgyMK-14" value="" style="endArrow=none;html=1;rounded=0;exitX=0;exitY=0.5;exitDx=0;exitDy=0;" edge="1" parent="1" source="RigMC0Gt6wFW-GYbgyMK-10" target="RigMC0Gt6wFW-GYbgyMK-1">
          <mxGeometry width="50" height="50" relative="1" as="geometry">
            <mxPoint x="430" y="270" as="sourcePoint" />
            <mxPoint x="480" y="220" as="targetPoint" />
          </mxGeometry>
        </mxCell>
        <mxCell id="RigMC0Gt6wFW-GYbgyMK-15" value="" style="endArrow=none;html=1;rounded=0;exitX=0;exitY=0.5;exitDx=0;exitDy=0;" edge="1" parent="1" source="RigMC0Gt6wFW-GYbgyMK-11" target="RigMC0Gt6wFW-GYbgyMK-1">
          <mxGeometry width="50" height="50" relative="1" as="geometry">
            <mxPoint x="430" y="270" as="sourcePoint" />
            <mxPoint x="480" y="220" as="targetPoint" />
          </mxGeometry>
        </mxCell>
        <mxCell id="RigMC0Gt6wFW-GYbgyMK-16" value="Equipe" style="shape=umlActor;verticalLabelPosition=bottom;verticalAlign=top;html=1;outlineConnect=0;" vertex="1" parent="1">
          <mxGeometry x="50" y="400" width="30" height="60" as="geometry" />
        </mxCell>
        <mxCell id="RigMC0Gt6wFW-GYbgyMK-20" value="Escolher porta-caminho" style="ellipse;whiteSpace=wrap;html=1;" vertex="1" parent="1">
          <mxGeometry x="220" y="350" width="120" height="60" as="geometry" />
        </mxCell>
        <mxCell id="RigMC0Gt6wFW-GYbgyMK-21" value="Iniciar jogo" style="ellipse;whiteSpace=wrap;html=1;" vertex="1" parent="1">
          <mxGeometry x="220" y="430" width="120" height="40" as="geometry" />
        </mxCell>
        <mxCell id="RigMC0Gt6wFW-GYbgyMK-24" value="Decifrar enigmas" style="ellipse;whiteSpace=wrap;html=1;" vertex="1" parent="1">
          <mxGeometry x="450" y="390" width="120" height="40" as="geometry" />
        </mxCell>
        <mxCell id="RigMC0Gt6wFW-GYbgyMK-25" value="Ver regras" style="ellipse;whiteSpace=wrap;html=1;" vertex="1" parent="1">
          <mxGeometry x="450" y="450" width="120" height="40" as="geometry" />
        </mxCell>
        <mxCell id="RigMC0Gt6wFW-GYbgyMK-27" value="Concluir jogo" style="ellipse;whiteSpace=wrap;html=1;" vertex="1" parent="1">
          <mxGeometry x="220" y="490" width="120" height="40" as="geometry" />
        </mxCell>
        <mxCell id="RigMC0Gt6wFW-GYbgyMK-28" value="Pausar Jogo" style="ellipse;whiteSpace=wrap;html=1;" vertex="1" parent="1">
          <mxGeometry x="220" y="545" width="120" height="40" as="geometry" />
        </mxCell>
        <mxCell id="RigMC0Gt6wFW-GYbgyMK-29" value="Encerrar Jogo" style="ellipse;whiteSpace=wrap;html=1;" vertex="1" parent="1">
          <mxGeometry x="220" y="600" width="120" height="40" as="geometry" />
        </mxCell>
        <mxCell id="RigMC0Gt6wFW-GYbgyMK-31" value="" style="endArrow=none;html=1;rounded=0;entryX=0.5;entryY=0.5;entryDx=0;entryDy=0;entryPerimeter=0;exitX=0;exitY=0.5;exitDx=0;exitDy=0;" edge="1" parent="1" source="RigMC0Gt6wFW-GYbgyMK-29" target="RigMC0Gt6wFW-GYbgyMK-16">
          <mxGeometry width="50" height="50" relative="1" as="geometry">
            <mxPoint x="430" y="590" as="sourcePoint" />
            <mxPoint x="480" y="540" as="targetPoint" />
          </mxGeometry>
        </mxCell>
        <mxCell id="RigMC0Gt6wFW-GYbgyMK-32" value="" style="endArrow=none;html=1;rounded=0;exitX=0;exitY=0.5;exitDx=0;exitDy=0;" edge="1" parent="1" source="RigMC0Gt6wFW-GYbgyMK-28" target="RigMC0Gt6wFW-GYbgyMK-16">
          <mxGeometry width="50" height="50" relative="1" as="geometry">
            <mxPoint x="430" y="590" as="sourcePoint" />
            <mxPoint x="480" y="540" as="targetPoint" />
          </mxGeometry>
        </mxCell>
        <mxCell id="RigMC0Gt6wFW-GYbgyMK-33" value="" style="endArrow=none;html=1;rounded=0;entryX=0.5;entryY=0.5;entryDx=0;entryDy=0;entryPerimeter=0;exitX=0;exitY=0.5;exitDx=0;exitDy=0;" edge="1" parent="1" source="RigMC0Gt6wFW-GYbgyMK-27" target="RigMC0Gt6wFW-GYbgyMK-16">
          <mxGeometry width="50" height="50" relative="1" as="geometry">
            <mxPoint x="430" y="590" as="sourcePoint" />
            <mxPoint x="480" y="540" as="targetPoint" />
          </mxGeometry>
        </mxCell>
        <mxCell id="RigMC0Gt6wFW-GYbgyMK-34" value="" style="endArrow=none;html=1;rounded=0;entryX=1;entryY=0.3333333333333333;entryDx=0;entryDy=0;entryPerimeter=0;exitX=0;exitY=0.5;exitDx=0;exitDy=0;" edge="1" parent="1" source="RigMC0Gt6wFW-GYbgyMK-20" target="RigMC0Gt6wFW-GYbgyMK-16">
          <mxGeometry width="50" height="50" relative="1" as="geometry">
            <mxPoint x="430" y="590" as="sourcePoint" />
            <mxPoint x="480" y="540" as="targetPoint" />
          </mxGeometry>
        </mxCell>
        <mxCell id="RigMC0Gt6wFW-GYbgyMK-35" value="" style="endArrow=none;html=1;rounded=0;exitX=0;exitY=0.5;exitDx=0;exitDy=0;" edge="1" parent="1" source="RigMC0Gt6wFW-GYbgyMK-21" target="RigMC0Gt6wFW-GYbgyMK-16">
          <mxGeometry width="50" height="50" relative="1" as="geometry">
            <mxPoint x="430" y="590" as="sourcePoint" />
            <mxPoint x="480" y="540" as="targetPoint" />
          </mxGeometry>
        </mxCell>
        <mxCell id="RigMC0Gt6wFW-GYbgyMK-43" value="&amp;lt;&amp;lt;extend&amp;gt;&amp;gt;" style="edgeStyle=none;html=1;startArrow=open;endArrow=none;startSize=12;verticalAlign=bottom;dashed=1;labelBackgroundColor=none;rounded=0;entryX=0;entryY=0.5;entryDx=0;entryDy=0;exitX=0.953;exitY=0.847;exitDx=0;exitDy=0;exitPerimeter=0;" edge="1" parent="1" source="RigMC0Gt6wFW-GYbgyMK-21" target="RigMC0Gt6wFW-GYbgyMK-25">
          <mxGeometry width="160" relative="1" as="geometry">
            <mxPoint x="440" y="550" as="sourcePoint" />
            <mxPoint x="450" y="480" as="targetPoint" />
          </mxGeometry>
        </mxCell>
        <mxCell id="RigMC0Gt6wFW-GYbgyMK-44" value="&amp;lt;&amp;lt;include&amp;gt;&amp;gt;" style="edgeStyle=none;html=1;endArrow=open;verticalAlign=bottom;dashed=1;labelBackgroundColor=none;rounded=0;exitX=1;exitY=0.5;exitDx=0;exitDy=0;entryX=0;entryY=0.5;entryDx=0;entryDy=0;" edge="1" parent="1" source="RigMC0Gt6wFW-GYbgyMK-21">
          <mxGeometry width="160" relative="1" as="geometry">
            <mxPoint x="440" y="550" as="sourcePoint" />
            <mxPoint x="450" y="410" as="targetPoint" />
          </mxGeometry>
        </mxCell>
      </root>
    </mxGraphModel>
  </diagram>
</mxfile>
